<svg width="100" height="100" viewBox="0 0 100 100" fill="none" xmlns="http://www.w3.org/2000/svg">
<rect width="100" height="100" rx="24" fill="#1A1819"/>
<g clip-path="url(#clip0_111_153)">
<path d="M34.8159 41.2292C27.8773 43.1572 23.3333 46.3652 23.3333 49.9999C23.3333 55.8932 35.2719 60.6666 49.9999 60.6666C52.0613 60.6666 54.0693 60.5732 55.9946 60.3946" stroke="white" stroke-width="4" stroke-linecap="round" stroke-linejoin="round"/>
<path d="M65.1787 58.7706C72.12 56.8453 76.6667 53.6346 76.6667 49.9999C76.6667 44.1066 64.728 39.3333 50 39.3333C47.9387 39.3333 45.9307 39.4266 44 39.6053" stroke="white" stroke-width="4" stroke-linecap="round" stroke-linejoin="round"/>
<path d="M34.8132 58.7653C33.0106 65.7387 33.5199 71.28 36.6666 73.0933C41.7679 76.04 51.8746 68.088 59.2372 55.3333C60.2692 53.5467 61.1919 51.7627 61.9999 50" stroke="white" stroke-width="4" stroke-linecap="round" stroke-linejoin="round"/>
<path d="M65.184 41.2427C66.9893 34.2667 66.4826 28.72 63.3333 26.9067C58.232 23.96 48.1253 31.912 40.7626 44.6667C39.7306 46.4534 38.808 48.24 37.9973 50" stroke="white" stroke-width="4" stroke-linecap="round" stroke-linejoin="round"/>
<path d="M49.9999 32.4639C44.8665 27.4186 39.8132 25.0879 36.6665 26.9066C31.5652 29.8506 33.3972 42.5786 40.7625 55.3333C41.7919 57.1199 42.8772 58.8106 43.9945 60.3893" stroke="white" stroke-width="4" stroke-linecap="round" stroke-linejoin="round"/>
<path d="M50 67.5306C55.136 72.5786 60.1893 74.9119 63.3333 73.0932C68.4347 70.1492 66.6027 57.4212 59.2373 44.6666C58.2373 42.9332 57.1573 41.2452 56.0053 39.6079" stroke="white" stroke-width="4" stroke-linecap="round" stroke-linejoin="round"/>
<path d="M48.6667 52.3094C48.97 52.4873 49.3056 52.6034 49.6541 52.651C50.0025 52.6987 50.3569 52.6769 50.6969 52.587C51.0369 52.4972 51.3558 52.3409 51.6351 52.1273C51.9145 51.9137 52.1488 51.6469 52.3247 51.3423C52.5005 51.0378 52.6144 50.7014 52.6597 50.3527C52.7051 50.0039 52.681 49.6497 52.5888 49.3103C52.4967 48.9709 52.3383 48.6531 52.1228 48.3751C51.9074 48.0972 51.639 47.8646 51.3333 47.6908C50.7212 47.3427 49.9962 47.2509 49.3166 47.4355C48.637 47.62 48.058 48.0658 47.7059 48.6756C47.3538 49.2854 47.2572 50.0098 47.4372 50.6906C47.6172 51.3714 48.0592 51.9533 48.6667 52.3094Z" stroke="white" stroke-width="4" stroke-linecap="round" stroke-linejoin="round"/>
</g>
<defs>
<clipPath id="clip0_111_153">
<rect width="64" height="64" fill="white" transform="translate(18 18)"/>
</clipPath>
</defs>
</svg>
